<svg xmlns="http://www.w3.org/2000/svg" width="68" height="122" viewBox="0 0 68 122" fill="none">
    <path d="M67.2954 110.776C67.2954 110.776 57.1401 111.425 51.8737 102.911C46.9399 94.9347 51.5412 94.5544 54.0261 97.8918C56.5829 101.328 56.7132 104.307 56.7132 104.307C56.7132 104.307 56.9963 101.596 57.904 102.808C58.8207 104.034 58.8836 107.081 58.8836 107.081C58.8836 107.081 59.3195 97.762 60.7619 98.6791C62.2178 99.6007 67.2909 110.78 67.2909 110.78L67.2954 110.776Z" fill="currentColor"/>
    <path d="M65.7856 113.178C65.7856 113.178 57.1985 110.561 54.5698 111.21C51.9277 111.863 46.4995 120.886 46.4995 120.886C46.4995 120.886 52.8803 122.765 55.6258 120.421C58.3219 118.113 58.8881 114.95 58.8881 114.95C58.8881 114.95 58.0253 121.119 60.4069 120.188C62.7705 119.262 65.7856 113.178 65.7856 113.178Z" fill="currentColor"/>
    <path d="M50.7234 109.452C50.7234 109.452 40.64 106.325 37.5979 96.8901C34.767 88.1262 39.247 89.3252 40.8467 93.1546C42.5003 97.1138 41.9206 99.8249 41.9206 99.8249C41.9206 99.8249 42.8373 97.4941 43.4304 98.9033C44.0281 100.326 43.363 103.073 43.363 103.073C43.363 103.073 46.0187 94.8591 47.2139 96.1878C48.4227 97.5299 50.7234 109.452 50.7234 109.452Z" fill="currentColor"/>
    <path d="M48.643 111.054C48.643 111.054 40.8962 105.574 38.2225 105.207C35.5534 104.845 28.3728 110.822 28.3728 110.822C28.3728 110.822 33.9178 114.794 37.0677 113.739C40.1907 112.692 41.4893 110.093 41.4893 110.093C41.4893 110.093 39.2021 115.246 41.714 115.309C44.2258 115.371 48.643 111.05 48.643 111.05V111.054Z" fill="currentColor"/>
    <path d="M34.9693 102.291C34.9693 102.291 26.2564 96.0593 25.5869 86.7809C24.9623 78.178 28.8312 80.652 29.4513 84.553C30.0894 88.5883 28.9256 90.7849 28.9256 90.7849C28.9256 90.7849 30.3141 89.0356 30.5477 90.4762C30.7814 91.9301 29.5277 94.1267 29.5277 94.1267C29.5277 94.1267 33.9133 87.7606 34.7357 89.3354C35.5669 90.9325 34.9738 102.291 34.9738 102.291H34.9693Z" fill="currentColor"/>
    <path d="M32.6372 102.972C32.6372 102.972 26.6698 95.4871 24.2883 94.2658C21.9292 93.0579 14.142 95.8406 14.142 95.8406C14.142 95.8406 18.2355 101.128 21.3181 101.294C24.4096 101.464 26.189 99.6432 26.189 99.6432C26.189 99.6432 22.9267 103.338 25.2139 104.269C27.5191 105.204 32.6372 102.972 32.6372 102.972Z" fill="currentColor"/>
    <path d="M21.9695 90.6409C21.9695 90.6409 15.4899 82.4273 16.9279 74.1688C18.2669 66.4786 21.2236 69.7936 20.9091 73.3994C20.59 77.126 19.0443 78.6828 19.0443 78.6828C19.0443 78.6828 20.6934 77.5912 20.5811 78.9199C20.4687 80.262 18.8466 81.7831 18.8466 81.7831C18.8466 81.7831 24.2612 77.5912 24.6612 79.2331C25.0656 80.8973 21.9695 90.6409 21.9695 90.6409Z" fill="currentColor"/>
    <path d="M19.6959 90.4664C19.6959 90.4664 15.9753 82.0604 14.1195 80.2575C12.2906 78.4814 4.87634 78.4814 4.87634 78.4814C4.87634 78.4814 7.30283 84.257 9.96747 85.3709C12.6591 86.4983 14.6362 85.4962 14.6362 85.4962C14.6362 85.4962 10.9381 87.6346 12.7624 89.1691C14.6093 90.7214 19.6959 90.462 19.6959 90.462V90.4664Z" fill="currentColor"/>
    <path d="M12.8478 76.4104C12.8478 76.4104 8.91154 67.387 11.9626 60.6586C14.8295 54.3328 16.7437 58.0594 15.6742 61.1238C14.5688 64.2778 12.8613 65.1859 12.8613 65.1859C12.8613 65.1859 14.5644 64.7162 14.1779 65.8391C13.7825 66.9709 12.0121 67.8165 12.0121 67.8165C12.0121 67.8165 17.7637 65.7586 17.7592 67.3109C17.7592 68.8857 12.8478 76.4149 12.8478 76.4149V76.4104Z" fill="currentColor"/>
    <path d="M10.8797 75.5691C10.8797 75.5691 9.42384 67.2168 8.18363 65.1231C6.9659 63.0697 0.571655 60.9805 0.571655 60.9805C0.571655 60.9805 1.43441 66.5905 3.48793 68.3128C5.57291 70.062 7.50961 69.7847 7.50961 69.7847C7.50961 69.7847 3.84741 70.5318 5.0966 72.3794C6.36826 74.2584 10.8797 75.5691 10.8797 75.5691Z" fill="currentColor"/>
    <path d="M7.90046 61.4462C7.90046 61.4462 6.39963 52.566 10.5157 47.551C14.4295 42.7775 15.3237 46.5533 13.6971 48.9467C12.03 51.4028 10.3269 51.7294 10.3269 51.7294C10.3269 51.7294 11.9311 51.7831 11.3425 52.6554C10.7493 53.5323 9.01035 53.7783 9.01035 53.7783C9.01035 53.7783 14.5418 53.5681 14.1958 54.9236C13.8498 56.297 7.89597 61.4462 7.89597 61.4462H7.90046Z" fill="currentColor"/>
    <path d="M6.36375 60.1665C6.36375 60.1665 6.8805 52.5613 6.24692 50.4184C5.62682 48.3202 0.567143 44.8486 0.567143 44.8486C0.567143 44.8486 0.131275 49.886 1.52426 51.9081C2.94869 53.9705 4.6742 54.2568 4.6742 54.2568C4.6742 54.2568 1.36249 53.9034 2.0455 55.827C2.74199 57.7865 6.36375 60.1665 6.36375 60.1665Z" fill="currentColor"/>
    <path d="M6.78599 47.1572C6.78599 47.1572 7.37913 39.0643 12.0748 35.718C16.6088 32.488 16.5773 36.049 14.5957 37.749C12.5781 39.4803 11.0009 39.3282 11.0009 39.3282C11.0009 39.3282 12.4073 39.7845 11.6974 40.3974C10.9829 41.0148 9.4012 40.7822 9.4012 40.7822C9.4012 40.7822 14.3396 42.0214 13.7374 43.1219C13.1308 44.2358 6.78149 47.1527 6.78149 47.1527L6.78599 47.1572Z" fill="currentColor"/>
    <path d="M5.72106 45.6444C5.72106 45.6444 7.79705 39.1754 7.70269 37.1533C7.61282 35.1715 3.95511 30.917 3.95511 30.917C3.95511 30.917 2.5127 35.1715 3.28558 37.2651C4.07644 39.408 5.50986 40.0925 5.50986 40.0925C5.50986 40.0925 2.72839 38.9517 2.90813 40.7859C3.09236 42.6559 5.71656 45.6488 5.71656 45.6488L5.72106 45.6444Z" fill="currentColor"/>
    <path d="M8.87561 34.442C8.87561 34.442 11.1448 27.4988 16.0517 25.6646C20.8598 23.8707 20.0374 27.038 17.8716 28.0715C15.6788 29.1183 14.3038 28.5994 14.3038 28.5994C14.3038 28.5994 15.4586 29.342 14.6902 29.7133C13.9218 30.0846 12.5648 29.4941 12.5648 29.4941C12.5648 29.4941 16.6943 31.798 15.9169 32.6212C15.1306 33.4533 8.8801 34.442 8.8801 34.442H8.87561Z" fill="currentColor"/>
    <path d="M8.26892 32.8627C8.26892 32.8627 11.4908 27.7 11.8457 25.8971C12.1962 24.13 9.89107 19.54 9.89107 19.54C9.89107 19.54 7.71173 22.9445 7.93641 24.9577C8.17007 27.0156 9.27547 27.9595 9.27547 27.9595C9.27547 27.9595 7.08714 26.2998 6.85347 27.9416C6.61532 29.6148 8.26443 32.8627 8.26443 32.8627H8.26892Z" fill="currentColor"/>
    <path d="M13.4768 23.786C13.4768 23.786 17.0267 18.1537 21.8751 17.6437C26.6967 17.1337 25.2183 19.8 22.994 20.2205C20.7608 20.6455 19.6284 19.8626 19.6284 19.8626C19.6284 19.8626 20.5091 20.7976 19.7317 20.9452C18.9544 21.0973 17.858 20.2563 17.858 20.2563C17.858 20.2563 21.0843 23.276 20.1946 23.8263C19.2959 24.381 13.4768 23.7815 13.4768 23.7815V23.786Z" fill="currentColor"/>
    <path d="M13.2837 22.2469C13.2837 22.2469 17.2964 18.4129 18.0153 16.8874C18.7208 15.3887 17.6648 10.7764 17.6648 10.7764C17.6648 10.7764 14.9597 13.3308 14.7216 15.1695C14.4789 17.0485 15.2608 18.1356 15.2608 18.1356C15.2608 18.1356 13.6701 16.1716 13.1039 17.5719C12.5288 18.999 13.2837 22.2469 13.2837 22.2469Z" fill="currentColor"/>
    <path d="M19.9519 15.3708C19.9519 15.3708 24.4544 11.1029 29.0557 11.7202C33.693 12.3376 31.6889 14.4358 29.5096 14.315C27.3347 14.1942 26.463 13.2323 26.463 13.2323C26.463 13.2323 27.0696 14.2747 26.3147 14.2344C25.5598 14.1942 24.7465 13.1921 24.7465 13.1921C24.7465 13.1921 27.0426 16.6502 26.09 16.941C25.1374 17.2318 19.9519 15.3708 19.9519 15.3708Z" fill="currentColor"/>
    <path d="M20.1182 13.9526C20.1182 13.9526 24.6431 11.3981 25.6497 10.1813C26.6427 8.98234 26.7101 4.57129 26.7101 4.57129C26.7101 4.57129 23.6411 6.30708 23.012 7.91313C22.3649 9.55497 22.8412 10.7047 22.8412 10.7047C22.8412 10.7047 21.8302 8.58866 21.0034 9.72497C20.1631 10.8792 20.1227 13.9571 20.1227 13.9571L20.1182 13.9526Z" fill="currentColor"/>
    <path d="M27.7887 9.23254C27.7887 9.23254 32.9787 6.32912 37.2026 7.89938C41.5118 9.50543 39.0808 10.9907 37.0273 10.3867C34.9873 9.78728 34.3851 8.71359 34.3851 8.71359C34.3851 8.71359 34.7132 9.80517 34.0122 9.59938C33.3112 9.39359 32.772 8.29754 32.772 8.29754C32.772 8.29754 34.1335 11.9749 33.1719 12.0241C32.2058 12.0778 27.7887 9.22807 27.7887 9.22807V9.23254Z" fill="currentColor"/>
    <path d="M28.2695 7.98047C28.2695 7.98047 33.091 6.63837 34.3268 5.73916C35.549 4.85337 36.6454 0.804688 36.6454 0.804688C36.6454 0.804688 33.3337 1.75311 32.3631 3.09074C31.379 4.45521 31.5543 5.60495 31.5543 5.60495C31.5543 5.60495 31.0959 3.45311 30.0579 4.31653C29.011 5.1889 28.2695 7.98047 28.2695 7.98047Z" fill="currentColor"/>
    <path d="M67.2954 110.776C67.2954 110.776 57.1401 111.425 51.8737 102.911C46.9399 94.9347 51.5412 94.5544 54.0261 97.8918C56.5829 101.328 56.7132 104.307 56.7132 104.307C56.7132 104.307 56.9963 101.596 57.904 102.808C58.8207 104.034 58.8836 107.081 58.8836 107.081C58.8836 107.081 59.3195 97.762 60.7619 98.6791C62.2178 99.6007 67.2909 110.78 67.2909 110.78L67.2954 110.776Z" fill="currentColor"/>
    <path d="M65.7856 113.178C65.7856 113.178 57.1985 110.561 54.5698 111.21C51.9277 111.863 46.4995 120.886 46.4995 120.886C46.4995 120.886 52.8803 122.765 55.6258 120.421C58.3219 118.113 58.8881 114.95 58.8881 114.95C58.8881 114.95 58.0253 121.119 60.4069 120.188C62.7705 119.262 65.7856 113.178 65.7856 113.178Z" fill="currentColor"/>
</svg>